<svg width="512" height="512" viewBox="0 0 512 512" fill="none" xmlns="http://www.w3.org/2000/svg">
  <rect width="512" height="512" rx="110" fill="#2563EB"/>
  <path d="M256 128C185.3 128 128 185.3 128 256C128 326.7 185.3 384 256 384C326.7 384 384 326.7 384 256C384 185.3 326.7 128 256 128ZM312 272H208C203.6 272 200 268.4 200 264V248C200 243.6 203.6 240 208 240H304V216C304 211.6 300.4 208 296 208H208C203.6 208 200 204.4 200 200V184C200 179.6 203.6 176 208 176H304C317.3 176 328 186.7 328 200V216C328 229.3 317.3 240 304 240H224V264H304C317.3 264 328 274.7 328 288V304C328 317.3 317.3 328 304 328H208C194.7 328 184 317.3 184 304V288C184 283.6 187.6 280 192 280H208C212.4 280 216 283.6 216 288V304C216 308.4 219.6 312 224 312H296C300.4 312 304 308.4 304 304V288C304 283.6 300.4 280 296 280H208C194.7 280 184 269.3 184 256V248C184 234.7 194.7 224 208 224H304C308.4 224 312 227.6 312 232V272Z" fill="white"/>
  <circle cx="256" cy="256" r="160" stroke="white" stroke-opacity="0.2" stroke-width="20"/>
  <path d="M350 150L360 180L390 190L360 200L350 230L340 200L310 190L340 180L350 150Z" fill="#34D399"/>
</svg>
